PathFileType	4	(X/Y/Z)	C:/Users/opensim2020/Desktop/walking_exp_matlab/subject03_walking09_straight_03.trc																																																																																																																																											
DataRate	CameraRate	NumFrames	NumMarkers	Units	OrigDataRate	OrigDataStartFrame	OrigNumFrames																																																																																																																																							
100	100	6	47	mm	100	2796	383																																																																																																																																							
Frame#	Time	LFHD			RFHD			LBHD			RBHD			C7			T10			CLAV			STRN			RBAK			LSHO			LUPA			LELB			LFRM			LWRA			LWRB			LFIN			RSHO			RUPA			RELB			RFRM			RWRA			RWRB			RFIN			LASI			RASI			LPSI			RPSI			LTHI			LKNE			LTIB			LANK			LHEE			LTOE			RTHI			RKNE			RTIB			RANK			RHEE			RTOE			*39			*40			*41			*42			*43			*44			*45			*46		
		X1	Y1	Z1	X2	Y2	Z2	X3	Y3	Z3	X4	Y4	Z4	X5	Y5	Z5	X6	Y6	Z6	X7	Y7	Z7	X8	Y8	Z8	X9	Y9	Z9	X10	Y10	Z10	X11	Y11	Z11	X12	Y12	Z12	X13	Y13	Z13	X14	Y14	Z14	X15	Y15	Z15	X16	Y16	Z16	X17	Y17	Z17	X18	Y18	Z18	X19	Y19	Z19	X20	Y20	Z20	X21	Y21	Z21	X22	Y22	Z22	X23	Y23	Z23	X24	Y24	Z24	X25	Y25	Z25	X26	Y26	Z26	X27	Y27	Z27	X28	Y28	Z28	X29	Y29	Z29	X30	Y30	Z30	X31	Y31	Z31	X32	Y32	Z32	X33	Y33	Z33	X34	Y34	Z34	X35	Y35	Z35	X36	Y36	Z36	X37	Y37	Z37	X38	Y38	Z38	X39	Y39	Z39	X40	Y40	Z40	X41	Y41	Z41	X42	Y42	Z42	X43	Y43	Z43	X44	Y44	Z44	X45	Y45	Z45	X46	Y46	Z46	X47	Y47	Z47
																																																																																																																																														
1	0	-1032.49976	1622.62537	-1072.20313	-1054.6366	1627.6377	-940.79059	-1154.04761	1565.76099	-1087.23767	-1171.87476	1570.73254	-957.17072	-1186.82642	1416.49426	-1024.93018	-1229.43164	1105.82666	-1019.85089	-1066.25366	1337.04016	-1015.82581	-1027.35559	1170.63171	-1017.60138	-1247.17554	1245.52917	-926.88983	-1099.0647	1373.14697	-1174.03162	-1099.05225	1178.24133	-1250.46143	-1081.92981	1057.38403	-1265.57935	-1039.80029	933.88171	-1260.50635	-1008.58582	820.32837	-1227.07275	-1025.953	822.18481	-1279.9657	-996.16394	744.34344	-1269.60486	-1116.28552	1362.99133	-859.2403	-1094.86206	1142.66492	-782.9621	-1065.78174	1033.84692	-768.76233	-1034.70972	900.54877	-764.61407	-998.38037	807.63342	-800.04932	-1023.6698	801.40521	-752.66278	-994.37811	733.21716	-762.69153	-1067.92224	932.57471	-1130.28613	-1066.89063	940.22345	-892.7998	-1230.19226	958.26697	-1083.43018	-1226.90222	975.28467	-934.23413	-1078.44507	631.8114	-1180.53491	-1041.32104	455.10471	-1159.49402	-1176.42798	313.75262	-1162.04883	-1309.52112	151.11697	-1126.59167	-1364.09888	142.52394	-1089.31348	-1208.5365	46.04265	-1100.42896	-1122.50427	648.08173	-855.43372	-1109.41846	467.86954	-892.36664	-1157.59717	282.53876	-888.86145	-1194.48157	68.84646	-937.32806	-1240.82727	37.05716	-985.53937	-1053.38171	31.57298	-955.18384	NaN	NaN	NaN	NaN	NaN	NaN	NaN	NaN	NaN	NaN	NaN	NaN	NaN	NaN	NaN	NaN	NaN	NaN	NaN	NaN	NaN	NaN	NaN	NaN
2	0.01	-1025.81494	1622.41797	-1071.99585	-1047.33984	1627.53101	-940.53009	-1147.82593	1566.4718	-1086.59814	-1164.93359	1571.30676	-956.44171	-1180.83606	1416.55981	-1024.09814	-1223.505	1105.92297	-1018.68463	-1060.44202	1337.09595	-1015.44824	-1021.5271	1170.78003	-1017.50549	-1240.64148	1245.73328	-925.54871	-1094.21594	1373.46899	-1173.61707	-1095.84631	1178.55103	-1250.28418	-1079.68921	1057.77454	-1265.85535	-1037.15186	934.4245	-1261.21814	-1004.93408	820.86273	-1228.30554	-1023.38	822.66449	-1280.4071	-992.6936	745.12659	-1270.59314	-1109.61133	1363.36206	-858.81964	-1086.37073	1143.33679	-782.48639	-1055.89221	1034.90625	-768.42993	-1023.37567	901.96991	-764.23541	-986.06311	809.45599	-799.79907	-1011.14758	803.0155	-752.22601	-981.13214	735.02869	-762.18658	-1062.42957	932.96411	-1129.32813	-1060.77087	939.99457	-892.47168	-1224.1604	958.63342	-1083.11462	-1220.78503	975.32727	-933.72406	-1068.82458	633.15717	-1179.76416	-1028.77722	457.1691	-1158.02405	-1160.29883	312.05695	-1160.59766	-1289.11023	146.0157	-1125.18994	-1343.80579	135.58653	-1088.31409	-1184.79565	44.90963	-1098.29297	-1117.62549	647.63031	-855.32477	-1105.46875	467.45813	-892.40283	-1155.19055	282.47144	-888.89703	-1194.07495	69.025	-937.38379	-1240.76953	37.51753	-985.32941	-1053.30933	31.56583	-955.22064	NaN	NaN	NaN	NaN	NaN	NaN	NaN	NaN	NaN	NaN	NaN	NaN	NaN	NaN	NaN	NaN	NaN	NaN	NaN	NaN	NaN	NaN	NaN	NaN
3	0.02	-1019.10748	1622.19458	-1071.72974	-1040.15112	1627.30078	-940.23169	-1141.56946	1567.2124	-1086.01978	-1158.17432	1571.98206	-955.79565	-1174.86426	1416.67969	-1023.27295	-1217.50598	1106.03516	-1017.61432	-1054.32056	1337.30444	-1015.42798	-1015.53595	1170.90271	-1017.67816	-1234.10986	1245.87598	-924.24261	-1089.30542	1373.78552	-1173.3894	-1092.46887	1178.82715	-1250.04285	-1077.39429	1057.96985	-1265.84863	-1034.40125	934.85052	-1261.81995	-1000.84253	821.59998	-1229.20081	-1020.716	823.00299	-1280.77722	-989.36627	745.69531	-1271.35559	-1102.89746	1363.61755	-858.44067	-1078.06567	1143.92419	-782.0155	-1046.30408	1035.85144	-767.97943	-1012.19543	903.34259	-763.96252	-973.91711	811.00073	-799.42664	-998.82208	804.54968	-751.97363	-968.03558	736.87439	-761.89343	-1056.1936	933.8056	-1129.04211	-1054.62598	939.79517	-892.20233	-1217.99731	958.85901	-1082.73596	-1214.75903	975.37048	-933.23663	-1059.07983	634.56464	-1178.6864	-1017.33569	458.4487	-1155.7677	-1144.27258	310.28772	-1159.17627	-1268.36035	140.59239	-1124.07996	-1322.84656	128.13748	-1087.29199	-1160.35291	43.7683	-1096.28552	-1112.78381	647.211	-855.28778	-1101.65405	467.03345	-892.46973	-1152.9248	282.40936	-889.00934	-1193.9668	69.44141	-937.20233	-1240.76074	37.98669	-985.16266	-1053.25366	31.53206	-955.23413	NaN	NaN	NaN	NaN	NaN	NaN	NaN	NaN	NaN	NaN	NaN	NaN	NaN	NaN	NaN	NaN	NaN	NaN	NaN	NaN	NaN	NaN	NaN	NaN
4	0.03	-1012.47498	1622.0238	-1071.60608	-1032.99402	1627.06519	-939.97675	-1135.31921	1567.87659	-1085.49548	-1151.50562	1572.62708	-955.15063	-1168.8208	1416.75928	-1022.56476	-1211.52954	1106.1377	-1016.53687	-1048.38062	1337.34741	-1015.36121	-1009.474	1171.02332	-1017.82806	-1227.54639	1245.99854	-923.03552	-1084.32202	1373.93774	-1173.20801	-1088.98206	1178.92407	-1249.79492	-1074.90784	1058.13025	-1265.87561	-1031.58081	935.12775	-1262.31384	-996.85333	822.16504	-1229.90454	-1017.96729	823.18848	-1280.97058	-986.23431	746.01105	-1271.83899	-1096.08276	1363.7998	-858.19379	-1069.95264	1144.47327	-781.21576	-1036.89038	1036.71069	-767.51349	-1001.18457	904.6264	-763.6972	-961.84448	812.89343	-799.29126	-986.63586	805.99945	-751.87421	-955.07251	738.72156	-761.68939	-1050.19336	934.44745	-1128.48303	-1048.53845	939.5047	-891.96161	-1212.10876	959.13458	-1082.41211	-1208.67419	975.30133	-932.78198	-1049.37646	635.64099	-1177.78271	-1005.09235	461.0535	-1154.51257	-1128.35144	308.44302	-1157.76282	-1247.03809	134.85196	-1122.77271	-1301.29895	120.29375	-1086.20337	-1134.66589	43.07059	-1094.44775	-1108.06177	646.77917	-855.31012	-1098.12927	466.6376	-892.49506	-1150.78577	282.33731	-889.12122	-1193.47791	69.54868	-937.31976	-1240.82373	38.56133	-985.16949	-1053.20923	31.51677	-955.26807	NaN	NaN	NaN	NaN	NaN	NaN	NaN	NaN	NaN	NaN	NaN	NaN	NaN	NaN	NaN	NaN	NaN	NaN	NaN	NaN	NaN	NaN	NaN	NaN
5	0.04	-1005.81671	1621.79932	-1071.5321	-1025.84961	1626.76245	-939.77417	-1129.02136	1568.4563	-1085.05444	-1144.67297	1573.03882	-954.68646	-1162.80127	1416.91663	-1021.93097	-1205.51135	1106.16846	-1015.57318	-1042.23132	1337.47742	-1015.54871	-1003.51532	1171.05164	-1017.76215	-1221.00769	1246.12634	-921.85498	-1079.34302	1373.98584	-1173.04968	-1085.34253	1178.96631	-1249.55505	-1072.23547	1057.88513	-1265.64771	-1028.69189	935.22406	-1262.61597	-992.82935	822.64667	-1230.47351	-1015.24493	823.19934	-1281.0155	-983.17615	746.02802	-1271.98145	-1089.25244	1363.95886	-857.89764	-1061.81299	1144.90234	-780.81641	-1027.71777	1037.48193	-767.02423	-990.47345	905.78113	-763.39594	-949.9989	814.66748	-799.32501	-974.70648	807.35187	-751.8468	-942.22095	740.54657	-761.70984	-1044.14819	935.0257	-1127.99268	-1042.90894	939.07898	-891.43164	-1206.20142	959.30298	-1082.14929	-1202.67432	975.15155	-932.37164	-1040.92712	637.04187	-1177.78015	-993.77606	462.9791	-1152.82959	-1112.53833	306.51981	-1156.36853	-1225.61169	129.18385	-1121.35474	-1279.39282	112.36221	-1084.79138	-1109.62048	41.61645	-1092.90247	-1103.45239	646.33374	-855.37378	-1094.84644	466.21982	-892.5564	-1148.74048	282.2352	-889.32642	-1193.25464	69.84274	-937.17822	-1240.81262	39.26957	-984.69873	-1053.16272	31.52279	-955.29364	NaN	NaN	NaN	NaN	NaN	NaN	NaN	NaN	NaN	NaN	NaN	NaN	NaN	NaN	NaN	NaN	NaN	NaN	NaN	NaN	NaN	NaN	NaN	NaN
6	0.05	-999.15729	1621.63733	-1071.45483	-1018.7793	1626.43396	-939.66876	-1122.7063	1568.86304	-1084.64661	-1138.05493	1573.45764	-954.20013	-1156.69885	1416.8479	-1021.3537	-1199.44812	1106.1416	-1014.70874	-1036.38428	1337.24084	-1015.36407	-997.42706	1170.94507	-1017.79877	-1214.41052	1246.22009	-920.78168	-1074.3009	1373.93872	-1172.90784	-1081.43042	1178.88428	-1249.33997	-1069.17688	1057.69763	-1265.5166	-1025.71313	935.1322	-1262.74194	-989.03406	822.8399	-1230.78809	-1012.40729	822.95697	-1280.828	-980.13776	745.84888	-1271.82922	-1082.34167	1364.04285	-857.70172	-1053.72327	1145.22424	-780.40344	-1018.67871	1038.1228	-766.55048	-979.80029	906.88513	-763.32477	-938.03223	816.36432	-799.22131	-962.87769	808.60498	-752.05688	-929.54205	742.20166	-762.00342	-1038.20886	935.55017	-1127.46533	-1036.98682	938.66504	-891.07819	-1200.323	959.47327	-1081.84058	-1196.69165	974.9032	-931.98975	-1031.6637	638.18726	-1177.01965	-982.95752	464.77725	-1151.25879	-1096.78699	304.52713	-1154.9502	-1203.01111	123.05455	-1119.56555	-1256.61353	104.16336	-1083.1394	-1084.7323	40.15624	-1091.88806	-1099.28259	646.02783	-855.26819	-1091.72852	465.74847	-892.65363	-1146.78076	282.07306	-889.55042	-1192.87329	69.8886	-937.33679	-1240.67969	39.44371	-984.7392	-1053.16626	31.51563	-955.35693	NaN	NaN	NaN	NaN	NaN	NaN	NaN	NaN	NaN	NaN	NaN	NaN	NaN	NaN	NaN	NaN	NaN	NaN	NaN	NaN	NaN	NaN	NaN	NaN
